<?xml version="1.0" encoding="utf-8" ?><svg xmlns="http://www.w3.org/2000/svg" xmlns:xlink="http://www.w3.org/1999/xlink" width="634" height="634" viewBox="0 0 634 634"><path fill="#FEFAF1" d="M0 0L634 0L634 634L0 634L0 0Z"/><path fill="#A04D27" d="M311.891 47.3269C316.055 48.1244 320.265 48.6628 324.496 48.9391C323.543 57.0058 323.851 64.0187 322.433 72.4167C321.489 81.1099 317.363 89.7374 315.901 98.2006C314.319 107.359 315.376 118.913 314.707 128.244C314.476 131.469 314.492 135.112 314.62 138.258C317.218 136.364 319.688 134.11 322.344 132.22C325.605 129.899 329.409 127.881 332.596 125.532C345.873 115.745 354.742 107.278 360.816 91.7248C362.578 87.2152 368.749 71.0944 370.948 68.1494C372.672 67.6728 379.343 67.6178 379.135 70.2681C377.5 91.0396 366.993 113.974 352.188 128.534C344.929 135.673 334.624 141.327 327.477 148.717C322.073 154.286 318.192 160.778 316.006 168.186C312.358 188.496 316.317 212.728 316.755 233.37C318.873 231.288 320.867 228.454 322.997 226.506C327.916 222.327 332.508 216.636 337.282 212.486C360.951 191.908 384.533 169.052 399.906 141.386C405.583 131.169 409.881 117.455 414.064 106.217C415.642 101.892 417.369 97.6226 419.241 93.4165C420.446 90.7225 423.567 84.7966 424.077 82.3992C427.744 83.2212 430.837 83.742 434.548 84.3221C434.01 103.424 426.06 112.769 419.482 129.832C415.586 139.938 411.017 149.148 406.588 158.983C422.945 152.898 433.107 146.883 444.107 133.236C447.381 129.173 455.207 113.553 459.329 113.34C468.819 112.849 456.613 134.123 454.526 136.816C444.479 152.013 429.669 163.793 413.587 172.129C397.174 179.657 392.423 182.685 380.49 195.297C376.886 199.127 373.169 202.849 369.343 206.458C355.44 219.795 339.859 233.904 329.42 250.167C326.476 254.511 324.683 259.63 322.438 264.251C318.283 272.802 316.442 280.666 315.033 290.001C314.3 294.857 312.646 299.359 312.277 304.493C326.4 291.209 343.778 278.579 360.554 268.907C371.94 262.342 384.303 258.177 395.818 252.581C409.259 246.048 425.175 236.806 435.561 226.291C449.3 212.382 460.662 196.034 467.468 177.639C472.736 164.065 472.676 146.862 480.859 135.44C482.112 133.691 486.968 129.868 488.925 127.959C490.947 129.639 493.157 131.068 495.299 132.88C487.797 144.272 485.86 165.706 481.883 179.317C477.229 195.244 472.277 204.167 463.632 218.03C467.738 217.962 472.278 217.03 476.406 216.655C495.013 214.964 512.36 207.017 527.029 195.643C531.291 192.339 536.114 189.094 540.603 186.102C543.801 189.161 544.553 192.747 548.34 194.864C543.801 198.917 535.816 205.702 530.911 208.997C514.926 219.722 497.27 225.998 478.769 230.843C471.921 232.637 461.591 233.774 455.212 236.164C450.372 237.977 442.965 245.755 438.495 248.818C436.671 250.068 433.334 252.761 431.731 254.297C449.643 254.964 464.738 260.83 481.721 265.618C484.877 266.507 488.234 267.197 491.469 267.72C499.011 268.98 506.71 268.982 514.253 267.725C525.12 265.993 542.816 258.84 551.682 252.414C553.126 254.799 556.552 258.769 558.407 261.278C553.49 265.454 542.321 270.95 536.223 273.604C515.28 282.722 493.908 282.942 471.821 278.309C463.688 276.603 453.593 273.45 445.71 272.124C432.075 269.829 408.558 270.308 395.642 274.917C383.567 279.226 368.852 287.263 358.285 294.627C353.915 297.357 349.727 301.229 345.367 303.866C339.957 307.137 334.257 309.902 329.069 313.596C320.26 319.87 312.568 327.606 303.981 334.14C302.22 335.48 300.18 335.698 298.116 335.979C297.806 343.962 297.921 352.026 297.901 360.019C297.849 372.684 297.871 385.35 297.967 398.015C298.057 407.798 298.574 419.409 297.827 428.98C314.865 430.994 334.305 429.454 348.842 419.571C375.209 401.645 376.365 357.002 346.904 341.532C339.746 337.773 333.623 336.724 325.813 335.297C332.65 330.68 335.848 326.722 341.558 321.078C344.458 318.211 348.765 314.573 351.9 311.809C357.43 314.403 365.453 316.953 370.364 319.676C385.703 328.2 399.613 340.515 404.676 357.862C410.874 379.099 405.98 399.63 392.091 416.478C379.763 431.432 365.431 437.299 347.584 442.7C354.685 445.831 366.199 458.662 370.844 465.22C382.214 481.271 388.454 500.418 399.558 516.83C413.978 538.14 431.999 553.333 456.919 560.635C461.367 561.938 465.879 562.643 470.428 563.551C471.372 565.217 471.784 566.386 472.468 568.172C468.268 568.425 464.008 568.259 459.797 568.399C438.914 569.09 416.957 566.208 397.779 557.678C381.092 550.257 367.006 536.628 357.437 521.227C354.1 515.857 351.28 510.027 348.404 504.384C345.281 498.217 342.253 492.002 339.32 485.742C329.521 465.244 321.515 454.294 298.513 448.624C298.503 452.37 298.569 456.168 298.483 459.919C297.639 497.002 302.033 546.582 341.314 563.207C343.846 564.279 349.482 565.711 351.325 567.387L351.308 567.896C348.067 569.369 329.177 568.1 325.088 567.042C310.053 563.149 293.995 552.015 285.745 538.883C282.022 548.129 271.279 560.378 262.754 565.458C256.473 568.95 249.458 569.57 242.413 569.593C240.96 569.597 236.144 570.312 238.05 566.89C250.114 566.187 259.414 554.576 263.216 544.085C264.531 540.456 266.858 530.591 265.248 527.108C264.7 526.91 264.391 526.824 263.909 527.496C251.955 544.165 236.849 555.988 217.567 562.985C203.301 568.162 191.403 568.781 176.445 568.183C173.592 568.069 168.411 568.653 166.02 567.557L166.012 566.975C166.494 566.485 167.222 566.036 167.909 565.917C183.915 563.142 199.965 558.02 213.124 548.1C236.346 530.502 251.565 504.347 255.392 475.463C257.556 459.826 257.342 444.42 256.973 428.698C256.814 421.945 257.163 414.822 256.971 408.084C256.449 389.715 258.479 366.535 254.648 348.786C251.635 335.441 245.801 322.896 237.538 311.993C230.405 302.58 221.877 294.31 212.249 287.47C191.487 272.563 170.974 266.661 145.286 269.747C129.342 271.663 112.941 275.915 96.813 273.244C84.9286 271.275 70.4475 265.248 62.001 256.443C59.7021 254.068 63.6158 251.537 65.3385 250.379C69.8745 252.26 72.6197 254.109 77.7287 255.902C101.199 264.139 115.272 260.279 138.226 256.025C145.904 254.626 153.641 253.569 161.413 252.858C152.786 246.642 145.037 236.202 136.976 232.01C112.104 219.076 77.7987 221.242 58.137 197.668C59.9685 194.715 62.0421 191.918 64.3363 189.308C79.8966 200.16 88.7475 206.157 108.187 210.229C116.163 211.899 123.197 212.047 130.102 215.728C128.645 212.479 127.773 208.703 126.227 205.549C117.278 187.296 110.157 169.558 106.616 149.416C105.808 144.818 104.327 137.4 102.618 133.186C104.919 131.94 106.822 130.929 108.984 129.453C121.121 140.828 120.645 150.285 124.732 165.249C125.724 168.879 129.021 176.427 130.688 179.966C138.451 196.442 146.312 208.717 158.563 222.141C169.217 233.816 179.869 243.367 193.529 251.54C198.92 254.726 204.711 257.302 210.158 260.369C227.428 270.094 242.723 282.111 256.611 296.227C263.794 303.529 269.43 308.513 274.833 317.648C275.622 312.382 274.974 306.318 274.415 301.107C271.909 277.778 259.848 257.732 244.685 240.439C235.313 229.75 227.193 223.061 215.827 214.745C206.324 207.792 196.996 198.576 189.043 189.949C181.57 181.841 176.316 171.337 171.5 161.516C169.701 157.816 166.189 150.056 163.772 147.088C149.695 129.801 142.87 128.773 135.507 106.64C138.825 105.045 139.849 104.422 142.893 102.318C148.098 110.149 151.26 116.653 159.242 122.68C161.227 121.485 162.326 120.992 164.459 120.064C164.999 117.614 168.969 111.926 170.445 115.77C173.845 124.621 175.253 133.961 178.439 143.034C186.116 164.898 201.055 180.105 219.855 192.784C219.66 164.646 215.545 141.065 198.949 118C189.75 105.216 186.101 85.0832 187.123 69.3355C190.239 68.6966 192.828 68.5047 195.985 68.414C198.155 76.8035 196.891 84.701 199.692 92.1031C202.697 100.044 209.308 108.011 214.073 115.056C221.735 126.385 227.723 136.852 231.667 149.964C233.635 156.565 235.126 163.297 236.131 170.111C237.035 176.596 238.831 203.587 240.589 206.946C245.12 215.605 256.584 226.266 263.425 233.895C269.113 240.24 274.516 247.046 279.877 253.676C281.206 255.32 285.666 262.81 286.771 263.169C287.98 262.212 288.617 258.614 289.017 256.996C293.947 237.047 292.646 216.223 292.829 195.86C292.523 188.707 293.383 180.456 292.69 173.413C291.463 160.963 279.803 147.236 272.53 137.803C258.601 119.738 251.634 99.9495 249.833 77.386C249.261 70.2176 248.271 62.7887 248.811 55.5618L248.848 55.1023C252.233 54.4197 255.457 54.4188 258.882 54.3635C262.481 64.3562 261.433 70.5492 262.938 80.478C265.307 96.0996 273.641 111.417 283.422 123.685C286.855 127.992 292.621 133.94 296.476 138.142C297.287 134.679 297.857 129.854 298.168 126.266C299.877 106.592 302.614 87.5709 307.374 68.377C309.066 61.5531 310.194 54.3198 311.891 47.3269Z"/><path fill="#CB6F46" d="M160.3 125.244C162.408 126.393 163.146 131.969 163.446 134.256C161.757 132.561 159.571 127.529 160.3 125.244Z"/></svg>